<svg width="1440" height="276" viewBox="0 0 1440 276" fill="none" xmlns="http://www.w3.org/2000/svg">
<mask id="mask0_16:37" style="mask-type:alpha" maskUnits="userSpaceOnUse" x="0" y="0" width="1440" height="276">
<rect width="1440" height="276" fill="#C4C4C4"/>
<rect width="1440" height="276" fill="#FDE9EC"/>
</mask>
<g mask="url(#mask0_16:37)">
<rect width="1440" height="276" fill="#C4C4C4"/>
<rect width="1440" height="276" fill="#FDE9EC"/>
<g opacity="0.5">
<path d="M1402.17 267.807C1404.84 274.222 1406.38 281.227 1406.53 288.557H1406.52V289.057V289.692V298.615V320.017H1385.92H1330.23H1317.51V292.705H1375.14H1378.13H1378.64L1378.63 292.193L1378.55 288.622L1378.55 288.621C1378.45 284.688 1377.61 280.93 1376.16 277.512L1376.16 277.512C1374.65 273.957 1372.49 270.743 1369.84 268.048L1369.84 268.047L1369.83 268.035L1369.83 268.033C1367.07 265.263 1363.8 263.023 1360.17 261.491L1360.16 261.491C1356.64 260.023 1352.81 259.2 1348.8 259.2H1333.18H1332.9L1332.75 259.439L1332.71 259.504C1332.66 259.521 1332.6 259.544 1332.55 259.578C1332.51 259.553 1332.46 259.531 1332.42 259.515C1332.3 259.475 1332.2 259.473 1332.16 259.473L1332.03 259.466L1331.9 259.187H1331.58H1329.7C1329.35 259.187 1329.05 259.175 1328.81 259.163C1328.47 259.138 1328.18 259.115 1327.95 259.08L1327.93 259.078L1327.92 259.077L1327.65 259.052L1327.64 259.052L1327.63 259.051C1288.28 256.844 1257.66 238.862 1232.56 213.575C1208.81 189.62 1189.94 159.077 1173.36 129.106H1195.14H1339.69H1352.72V142.32V155.373H1339.63H1228.5V155.36H1228H1222.12H1221.28L1221.68 156.096L1224.49 161.348L1224.49 161.348C1232.82 176.897 1249.12 196.969 1270.84 211.888L1270.84 211.888C1287.37 223.238 1307.07 231.669 1328.84 232.92L1328.85 232.921H1328.87H1328.97L1329.15 233.591L1329.4 234.569L1330.02 233.775L1330.7 232.921H1350.48C1358.04 232.921 1365.24 234.45 1371.81 237.224L1371.81 237.225C1378.66 240.111 1384.84 244.341 1390.02 249.585L1390.08 249.647C1395.19 254.829 1399.33 260.997 1402.17 267.807L1402.17 267.807Z" stroke="#111111"/>
<path d="M1155.5 67.9003C1155.51 53.1722 1162.24 40.2169 1172.41 32.6791C1182.59 40.217 1189.32 53.1603 1189.32 67.9001C1189.32 82.64 1182.59 95.5833 1172.41 103.121C1162.24 95.5833 1155.5 82.6401 1155.5 67.9003Z" stroke="#111111"/>
<path d="M1472.2 144.212L1472.2 144.212C1480.2 153.005 1485.58 164.872 1485.56 177.899V177.9C1485.56 190.927 1480.19 202.795 1472.2 211.575L1472.2 211.575C1463.71 220.904 1452.36 226.681 1441.48 226.681H1404.37C1397.17 221.764 1389.67 218.402 1382.68 216.128V129.106H1441.48C1452.36 129.106 1463.71 134.883 1472.2 144.212ZM1438.59 152.224H1438.09V152.236H1408.06H1407.56V152.736V204.121V204.621H1408.06H1438.59C1444.42 204.621 1450.4 201.665 1454.9 196.937C1459.41 192.204 1462.48 185.66 1462.48 178.423C1462.48 171.186 1459.41 164.641 1454.9 159.908C1450.4 155.18 1444.42 152.224 1438.59 152.224Z" stroke="#111111"/>
</g>
</g>
</svg>
