<svg width="148" height="58" viewBox="0 0 148 58" fill="none" xmlns="http://www.w3.org/2000/svg">
<path d="M81.3536 29.7319V10.8474V10.602H81.55H85.7129H85.9718V10.8782V12.3273C86.118 12.1205 86.2855 11.9292 86.4575 11.7532C86.7956 11.4075 87.1518 11.122 87.5295 10.8936C87.9086 10.6637 88.3091 10.4924 88.7293 10.3782C89.1496 10.264 89.5896 10.2069 90.0495 10.2069C91.9254 10.2069 93.4221 10.8659 94.5367 12.1838C95.091 12.8427 95.5067 13.6144 95.7838 14.5002C96.0579 15.3798 96.1949 16.3706 96.1949 17.474C96.1949 18.5496 96.0594 19.5234 95.7853 20.3984C95.5112 21.2765 95.0986 22.0527 94.5474 22.7256C93.9931 23.4015 93.3521 23.9108 92.6273 24.2488C91.901 24.5883 91.094 24.758 90.2063 24.758C89.0795 24.758 88.1538 24.542 87.4351 24.1114C87.0742 23.8969 86.7331 23.613 86.4149 23.2611C86.3007 23.1345 86.188 22.9987 86.0784 22.8537C86.0875 23.0281 86.0951 23.2302 86.0997 23.4555C86.1043 23.7163 86.1012 24.2148 86.1012 24.2148V29.7365V29.9819H85.8606H81.5942H81.3536V29.7319ZM85.7967 17.4925C85.7967 18.4539 86.0373 19.2101 86.5169 19.7533C86.7514 20.0203 87.0316 20.2194 87.3559 20.3536H87.3574C87.6878 20.4895 88.0685 20.5574 88.4948 20.5574C88.9242 20.5574 89.3049 20.4895 89.6368 20.3536C89.9627 20.2209 90.2474 20.0203 90.4865 19.7518C90.7286 19.4817 90.9113 19.1607 91.0331 18.7904C91.1564 18.4138 91.2189 17.9802 91.2189 17.4925C91.2189 17.0079 91.1564 16.5743 91.0331 16.1962C90.9113 15.8243 90.7301 15.5033 90.491 15.2317C90.2535 14.9647 89.9703 14.7641 89.6429 14.6298C89.311 14.494 88.9273 14.4276 88.4948 14.4276C88.067 14.4276 87.6878 14.4955 87.3574 14.6314H87.3559C87.0316 14.7641 86.7514 14.9647 86.5169 15.2301C86.2794 15.5002 86.1012 15.8212 85.9809 16.1931C85.8576 16.5727 85.7967 17.0064 85.7967 17.4925Z" fill="#E62542"/>
<path d="M147.172 47.7322H137.634C137.654 48.1087 137.715 48.4498 137.814 48.7522C137.931 49.1103 138.103 49.4128 138.328 49.6628C138.554 49.9081 138.826 50.0933 139.147 50.2183C139.475 50.3449 139.852 50.4081 140.282 50.4081C140.612 50.4081 140.912 50.3773 141.183 50.3155C141.45 50.2554 141.692 50.1643 141.908 50.0455C142.123 49.9236 142.311 49.7754 142.473 49.5979C142.634 49.422 142.773 49.2152 142.887 48.976L142.986 48.7677L143.198 48.8541L146.613 50.2569L146.84 50.3495L146.747 50.5779C146.531 51.1088 146.232 51.581 145.85 51.9915C145.471 52.3989 145.01 52.7461 144.468 53.0332V53.0347C143.929 53.3171 143.33 53.5301 142.672 53.6721C142.019 53.8125 141.308 53.8835 140.539 53.8835C139.391 53.8835 138.351 53.7199 137.424 53.3927C136.492 53.064 135.674 52.5702 134.974 51.9128C134.269 51.2523 133.74 50.4853 133.387 49.6149C133.035 48.7461 132.859 47.7769 132.859 46.7059C132.859 45.6534 133.034 44.6858 133.386 43.8062C133.737 42.925 134.263 42.1349 134.963 41.4343L134.965 41.4327C135.667 40.7321 136.463 40.2074 137.351 39.8571C138.237 39.5083 139.213 39.3339 140.279 39.3339C141.375 39.3339 142.36 39.5114 143.233 39.8663C144.108 40.2228 144.866 40.7568 145.506 41.4713C146.146 42.1843 146.625 43.0253 146.945 43.996C147.262 44.959 147.42 46.0501 147.42 47.2661V47.4883V47.7353H147.172V47.7322ZM142.385 44.6118C142.337 44.3726 142.269 44.1534 142.176 43.9543C142.051 43.6843 141.882 43.4451 141.669 43.2398C141.456 43.0361 141.22 42.8833 140.961 42.7815C140.702 42.6796 140.414 42.6287 140.099 42.6287C139.756 42.6287 139.45 42.675 139.182 42.7692V42.7676C138.922 42.8587 138.695 42.996 138.502 43.1781C138.308 43.3633 138.145 43.5963 138.013 43.8772C137.911 44.0948 137.829 44.3386 137.763 44.6102H142.385V44.6118Z" fill="#E62542"/>
<path d="M116.69 53.0779V39.9836V39.6703H116.885H121.026H121.309V39.9836V41.7922C121.445 41.5391 121.626 41.3061 121.815 41.0931C122.176 40.6857 122.978 40.0607 122.978 40.0607H122.98C122.98 40.0607 123.848 39.6363 124.343 39.5067C124.836 39.3771 125.366 39.3123 125.932 39.3123C126.359 39.3123 126.765 39.3477 127.152 39.4203C127.539 39.4913 127.901 39.5993 128.239 39.7397L128.241 39.7413C128.582 39.8863 128.892 40.0623 129.169 40.2691C129.45 40.4789 129.699 40.7197 129.914 40.9944L129.916 40.9959C130.095 41.2274 130.251 41.4882 130.378 41.7737C130.508 42.0607 130.61 42.3725 130.678 42.7043V42.7058C130.759 43.0376 130.815 43.4466 130.852 43.9311C130.889 44.4095 130.907 44.9651 130.934 45.5947V53.1118V53.3279H130.741H126.176H125.931V53.081V46.0485C125.931 45.5376 125.89 45.1025 125.81 44.7413C125.733 44.3941 125.619 44.1132 125.469 43.9003C125.328 43.7012 125.142 43.55 124.914 43.4481C124.676 43.3432 124.388 43.2907 124.052 43.2907C123.195 43.2907 122.573 43.6071 122.183 44.2367C121.983 44.567 121.83 45.0068 121.727 45.5531C121.622 46.1117 121.568 46.7846 121.568 47.5685V53.0794V53.3263H121.328H116.933H116.693V53.0779H116.69Z" fill="#E62542"/>
<path d="M109.445 53.0763V39.9172V39.6703H109.687H114.206H114.448V39.9172V53.0763V53.3248H114.206H109.687H109.445V53.0763Z" fill="#E62542"/>
<path d="M109.244 35.8832C109.244 35.502 109.311 35.1455 109.445 34.8184V34.8168C109.579 34.4897 109.78 34.1918 110.046 33.9218L110.048 33.9202C110.313 33.6517 110.607 33.448 110.93 33.3122C111.252 33.1764 111.603 33.1069 111.979 33.1069C112.364 33.1069 112.72 33.1748 113.048 33.3076C113.375 33.4418 113.669 33.6409 113.931 33.9063L113.932 33.9079C114.196 34.1733 114.394 34.4711 114.526 34.8029C114.657 35.1332 114.724 35.4928 114.724 35.8832C114.724 36.2736 114.657 36.6363 114.523 36.9712C114.389 37.3045 114.19 37.6085 113.922 37.8832C113.657 38.1579 113.361 38.3647 113.035 38.5036C112.71 38.6425 112.358 38.7119 111.98 38.7119C111.609 38.7119 111.26 38.641 110.936 38.499V38.5005C110.614 38.3601 110.319 38.1487 110.051 37.8709C109.785 37.5931 109.584 37.2891 109.45 36.9573C109.311 36.6224 109.244 36.2659 109.244 35.8832Z" fill="#E62542"/>
<path d="M97.5988 53.1767L91.8172 40.016L91.665 39.6688H92.0395H96.8785H97.046L97.1054 39.8278L99.295 45.638C99.3133 45.6812 99.3285 45.7229 99.3452 45.7677L99.3803 45.8587L99.3818 45.8633C99.5006 46.1859 99.601 46.4806 99.6802 46.7445C99.7533 46.5146 99.8416 46.2646 99.9467 45.993L99.9878 45.8819L99.9893 45.8803C100.021 45.7939 100.047 45.7229 100.072 45.6488L100.076 45.638L102.266 39.8278L102.325 39.6688H102.493H107.21H107.586L107.432 40.016L101.594 53.1767L101.529 53.3233H101.372H97.8226H97.6658L97.5988 53.1767Z" fill="#E62542"/>
<path d="M84.4811 53.0764V39.9173V39.6703H84.7247H89.2424H89.4861V39.9173V53.0764V53.3248H89.2424H84.7247H84.4811V53.0764Z" fill="#E62542"/>
<path d="M84.274 35.8832C84.274 35.4881 84.344 35.1208 84.4826 34.7813V34.7798C84.6212 34.4418 84.8282 34.1331 85.1054 33.8538L85.1069 33.8523C85.381 33.5745 85.6855 33.3646 86.0174 33.2242C86.3509 33.0837 86.7133 33.0128 87.1016 33.0128C87.5005 33.0128 87.869 33.0822 88.2055 33.2211C88.5435 33.36 88.848 33.5668 89.1191 33.8399L89.1206 33.8415C89.3932 34.1162 89.5972 34.4248 89.7342 34.7659C89.8697 35.1069 89.9383 35.4804 89.9383 35.8832C89.9383 36.2875 89.8698 36.6625 89.7312 37.0082C89.5926 37.3539 89.3855 37.6687 89.1084 37.9511C88.8343 38.2335 88.5283 38.448 88.1918 38.5915C87.8553 38.7351 87.4914 38.8076 87.1016 38.8076C86.7163 38.8076 86.357 38.7335 86.022 38.5884V38.5869C85.6885 38.4403 85.3825 38.2227 85.1069 37.9357C84.8313 37.6486 84.6242 37.3338 84.4841 36.9912C84.344 36.6471 84.274 36.2767 84.274 35.8832Z" fill="#E62542"/>
<path d="M65.352 53.0779V34.0637V33.8168H65.5941H69.4571C70.8975 33.8168 72.1308 33.8523 73.1586 33.9218C74.188 33.9912 75.0087 34.0977 75.6177 34.2397C76.2314 34.3801 76.8054 34.5699 77.3429 34.8076C77.8819 35.0468 78.3844 35.3323 78.8488 35.6656C79.4533 36.0993 79.9847 36.5931 80.443 37.1471C80.8998 37.6996 81.2866 38.3154 81.5987 38.9897C81.9109 39.661 82.1438 40.3817 82.3007 41.1487C82.456 41.9172 82.5336 42.729 82.5336 43.5839C82.5336 44.4373 82.456 45.2475 82.3007 46.013C82.1454 46.78 81.9109 47.5007 81.5987 48.1735C81.2866 48.8494 80.9014 49.4652 80.4446 50.0177C79.9862 50.5717 79.4533 51.0671 78.8488 51.5007C78.389 51.8294 77.8956 52.1118 77.3703 52.3464C76.8465 52.581 76.2892 52.7692 75.7 52.9097C75.1137 53.0486 74.3692 53.152 73.4647 53.2214C72.5679 53.2893 71.5157 53.3248 70.3082 53.3248H69.4571H65.5941H65.352V53.0779ZM70.8701 48.6426H71.4472C72.4156 48.6426 73.25 48.5408 73.9489 48.3386C74.6356 48.1396 75.1914 47.8433 75.6162 47.4513C76.038 47.0624 76.3547 46.5562 76.5663 45.9343C76.7826 45.2985 76.8907 44.5392 76.8907 43.6534C76.8907 42.7707 76.7826 42.0098 76.5663 41.3725C76.3547 40.7475 76.038 40.2351 75.6147 39.837C75.1899 39.4388 74.6371 39.1394 73.955 38.9388C73.2607 38.7336 72.4308 38.6302 71.4685 38.6302H70.8701V48.6426Z" fill="#E62542"/>
<path d="M131.096 18.6639H121.556C121.576 19.0435 121.637 19.3876 121.736 19.6917C121.853 20.0528 122.025 20.3583 122.251 20.6099C122.476 20.8583 122.748 21.0451 123.07 21.1701C123.397 21.2982 123.775 21.3614 124.204 21.3614C124.535 21.3614 124.835 21.3306 125.106 21.2673C125.372 21.2056 125.614 21.1145 125.83 20.9957C126.045 20.8738 126.234 20.7225 126.395 20.5451C126.557 20.3676 126.695 20.1577 126.809 19.9185L126.908 19.7086L127.12 19.7966L130.535 21.2102L130.762 21.3043L130.669 21.5358C130.238 22.6068 129.479 23.4324 128.39 24.0112V24.0127C127.851 24.2982 127.252 24.5127 126.595 24.6547C125.941 24.7967 125.23 24.8676 124.461 24.8676C123.313 24.8676 122.273 24.7025 121.346 24.3723C120.414 24.0405 119.597 23.5436 118.895 22.88C118.191 22.2133 117.661 21.4417 117.308 20.562C116.956 19.6855 116.78 18.7086 116.78 17.6284C116.78 16.5651 116.955 15.5897 117.307 14.7024C117.658 13.8135 118.184 13.0156 118.884 12.3104L118.885 12.3088C119.587 11.602 120.384 11.0727 121.271 10.7193C122.158 10.3675 123.134 10.1915 124.2 10.1915C125.297 10.1915 126.281 10.3705 127.154 10.7286C128.029 11.0881 128.787 11.6267 129.427 12.3474C130.066 13.065 130.544 13.9138 130.864 14.8937H130.866C131.182 15.8644 131.341 16.9648 131.341 18.1932V18.4169V18.6654H131.096V18.6639ZM126.394 15.5419C126.348 15.3027 126.278 15.0836 126.185 14.8845C126.06 14.6129 125.891 14.3752 125.678 14.17C125.465 13.9663 125.229 13.8135 124.97 13.7116C124.711 13.6098 124.423 13.5589 124.108 13.5589C123.766 13.5589 123.46 13.6052 123.192 13.6993V13.6977C122.931 13.7888 122.704 13.9261 122.511 14.1082C122.318 14.2934 122.155 14.5265 122.022 14.8073C121.92 15.0249 121.836 15.2688 121.772 15.5404H126.394V15.5419Z" fill="#E62542"/>
<path d="M114.729 15.3768C114.517 15.1839 114.311 15.0187 114.11 14.8814C113.911 14.744 113.718 14.6329 113.53 14.5496C113.343 14.4663 113.151 14.4015 112.956 14.3598C112.761 14.3181 112.56 14.2965 112.352 14.2965C111.938 14.2965 111.568 14.366 111.242 14.5048H111.24C110.92 14.6407 110.642 14.8474 110.403 15.1221C110.162 15.4015 109.979 15.7302 109.859 16.1083C109.736 16.4941 109.675 16.9354 109.675 17.4308C109.675 17.9061 109.739 18.3305 109.867 18.7024C109.993 19.0713 110.182 19.3938 110.433 19.6685C110.683 19.9416 110.974 20.1454 111.307 20.2812C111.645 20.4185 112.03 20.4864 112.464 20.4864C112.888 20.4864 113.281 20.4015 113.649 20.2302C113.833 20.1438 114.014 20.0342 114.191 19.9C114.369 19.7642 114.544 19.6037 114.715 19.42L115.134 18.9694V19.5882V23.6037V23.7457L115.01 23.8167C114.73 23.9772 114.451 24.1176 114.176 24.2365C113.899 24.3553 113.619 24.4525 113.337 24.5297C113.058 24.6053 112.774 24.6624 112.481 24.701C112.19 24.7395 111.898 24.7596 111.607 24.7596C109.577 24.7596 107.928 24.0852 106.665 22.7395C106.033 22.0667 105.558 21.2889 105.242 20.4031C104.927 19.5219 104.77 18.5373 104.77 17.4524C104.77 15.332 105.415 13.5928 106.701 12.2409C107.347 11.5635 108.085 11.0557 108.914 10.7162C109.74 10.3783 110.656 10.2085 111.659 10.2085C111.986 10.2085 112.303 10.2255 112.605 10.2594C112.908 10.2934 113.197 10.3443 113.469 10.4122C113.745 10.4801 114.013 10.5696 114.27 10.6776C114.528 10.7857 114.777 10.9168 115.018 11.0665L115.134 11.1391V11.2764V15.1947V15.7441L114.729 15.3768Z" fill="#E62542"/>
<path d="M97.8729 6.77633C97.8729 6.39515 97.9399 6.03867 98.0739 5.7115V5.70996C98.2078 5.38279 98.4073 5.08495 98.6753 4.81489L98.6768 4.81334C98.9418 4.54482 99.2356 4.34111 99.5584 4.20531C99.8812 4.06951 100.231 4.00006 100.608 4.00006C100.993 4.00006 101.349 4.06642 101.676 4.20068C102.004 4.33494 102.298 4.53402 102.56 4.79945L102.561 4.801C102.825 5.06643 103.022 5.36428 103.155 5.69607C103.286 6.02632 103.353 6.38589 103.353 6.77633C103.353 7.16677 103.286 7.52943 103.152 7.86431C103.018 8.19765 102.818 8.50166 102.55 8.77636C102.286 9.05105 101.99 9.25784 101.664 9.39519C101.338 9.53408 100.987 9.60353 100.609 9.60353C100.238 9.60353 99.8889 9.53254 99.5645 9.39056C99.2432 9.25013 98.9479 9.0387 98.6814 8.76092C98.4149 8.48314 98.2139 8.17913 98.0799 7.84733C97.9414 7.51554 97.8729 7.15751 97.8729 6.77633Z" fill="#E62542"/>
<path d="M98.0739 24.0081V10.8474V10.6005H98.3175H102.835H103.079V10.8474V24.0081V24.255H102.835H98.3175H98.0739V24.0081Z" fill="#E62542"/>
<path d="M67.7532 17.7055C68.1247 18.1284 68.4917 18.4972 68.8571 18.812C69.218 19.1238 69.5758 19.3846 69.9306 19.5914C70.2823 19.7951 70.631 19.9463 70.9767 20.0482C71.3193 20.1485 71.6619 20.1979 72.006 20.1979C72.6257 20.1979 73.1358 20.0327 73.5241 19.704H73.4951C73.687 19.5404 73.8286 19.3583 73.923 19.1546C74.0159 18.954 74.0616 18.7272 74.0616 18.4756C74.0616 18.1901 74.0205 17.9401 73.9382 17.7256C73.8591 17.5188 73.7388 17.3429 73.5804 17.1978C73.4129 17.045 73.1282 16.8861 72.7262 16.7179C72.312 16.5466 71.7791 16.3707 71.1274 16.1916H71.1259C70.2047 15.937 69.4114 15.6422 68.7505 15.3074C68.0791 14.9663 67.5446 14.5851 67.1487 14.1623V14.2317C66.7452 13.8073 66.4437 13.3058 66.2427 12.7286C66.0433 12.1561 65.9443 11.5095 65.9443 10.7934C65.9443 9.86131 66.0996 9.01562 66.4102 8.25326C66.7224 7.48936 67.1898 6.81034 67.8141 6.21929C68.4338 5.62977 69.148 5.18687 69.955 4.89211C70.7589 4.59889 71.6512 4.45074 72.6318 4.45074C73.1571 4.45074 73.6702 4.48778 74.1712 4.55877C74.6722 4.62976 75.1579 4.73624 75.6314 4.87822L75.6329 4.87976C76.108 5.02483 76.5694 5.20384 77.017 5.41989C77.4647 5.63595 77.9017 5.88903 78.325 6.17762L78.491 6.29027L78.4118 6.47392L76.8145 10.1545L76.6836 10.457L76.4323 10.2425C76.1507 10.0017 75.8674 9.79186 75.5827 9.61285C75.2995 9.43383 75.0102 9.28414 74.7178 9.16223C74.4301 9.0434 74.1423 8.95389 73.8575 8.8937C73.5758 8.83506 73.2926 8.8042 73.0094 8.8042C72.7277 8.8042 72.475 8.83815 72.2511 8.90451C72.0303 8.96932 71.837 9.06809 71.668 9.19618C71.5066 9.31963 71.3863 9.46007 71.3071 9.61748C71.2294 9.7718 71.1898 9.94619 71.1898 10.1391C71.1898 10.3397 71.2249 10.5203 71.2934 10.6761C71.3619 10.8305 71.4639 10.9663 71.6025 11.0835C71.7517 11.2085 71.9786 11.3351 72.2801 11.4601C72.5937 11.5913 72.9851 11.7178 73.4495 11.8413L73.454 11.8428L73.6855 11.9092V11.9107C74.7361 12.1962 75.6086 12.4971 76.3029 12.812C77.014 13.1345 77.5439 13.4771 77.8926 13.8382C78.1255 14.079 78.3296 14.3459 78.5077 14.6376C78.6874 14.9324 78.8366 15.2487 78.9569 15.5851V15.5867C79.0772 15.9231 79.167 16.2781 79.2264 16.6531C79.2858 17.0265 79.3163 17.4154 79.3163 17.8197C79.3163 18.8475 79.1472 19.7781 78.8107 20.6084C78.4727 21.4417 77.9641 22.1747 77.2881 22.8028C76.612 23.4325 75.8248 23.9047 74.9264 24.218C74.0311 24.5313 73.0277 24.6871 71.9161 24.6871C71.2523 24.6871 70.6158 24.63 70.0067 24.5158C69.3977 24.4016 68.816 24.2303 68.2663 24.0035H68.2648C67.7167 23.7735 67.1776 23.4788 66.6493 23.1192C66.1255 22.7627 65.6124 22.343 65.1114 21.8584L64.9728 21.7241L65.0718 21.559L67.3665 17.7472L67.5385 17.4617L67.7532 17.7055Z" fill="#E62542"/>
<path d="M28.3564 57.4791C44.0172 57.4791 56.7128 44.612 56.7128 28.7396C56.7128 12.8671 44.0172 0 28.3564 0C12.6956 0 0 12.8671 0 28.7396C0 44.612 12.6956 57.4791 28.3564 57.4791Z" fill="#E62542"/>
<path d="M18.5231 28.0574H32.3655H34.0511V26.3768V24.6762H32.3731H14.4485H11.6422C13.7115 28.4232 16.0686 32.255 19.0454 35.2566C22.1653 38.4002 25.9765 40.6394 30.8749 40.9141L30.9084 40.9172C30.9403 40.9218 30.9784 40.9249 31.021 40.928C31.0515 40.9295 31.0896 40.9311 31.1352 40.9311H31.3682L31.3834 40.9635L31.4108 40.965L31.4382 40.9665C31.455 40.9665 31.4717 40.9665 31.4885 41.0622H31.49C31.4991 40.9665 31.5189 40.9665 31.5463 40.965L31.5661 40.9326H33.503C33.9917 40.9326 34.4592 41.0329 34.8886 41.2119C35.3317 41.3986 35.7306 41.6718 36.0671 42.0098L36.0686 42.0113C36.3914 42.34 36.6549 42.732 36.8391 43.1656C37.0157 43.5823 37.1177 44.0407 37.1299 44.5206L37.1406 44.9635H36.7691H29.5608V48.4744H31.2007H38.1059H40.7234V45.7583V44.6518V44.5731H40.7249C40.7143 43.6332 40.5209 42.7351 40.1783 41.9141C39.8235 41.0622 39.3058 40.2906 38.6663 39.6425L38.6587 39.6347C38.0115 38.9789 37.238 38.4495 36.3808 38.0884C35.5585 37.7412 34.6571 37.5498 33.7116 37.5498H31.2281L31.1261 37.6795L31.0926 37.5498H31.0317C28.3457 37.3955 25.9141 36.3554 23.8706 34.9526C21.1862 33.1084 19.1717 30.6269 18.1424 28.7071L17.7937 28.0559H18.5231V28.0574Z" fill="white"/>
<path fill-rule="evenodd" clip-rule="evenodd" d="M11.6301 12.7038C12.9289 13.6467 13.7892 15.2841 13.7892 17.1483C13.7892 19.0125 12.9289 20.6499 11.6301 21.5928C10.3312 20.6499 9.47095 19.0125 9.47095 17.1483C9.47247 15.2856 10.3312 13.6467 11.6301 12.7038Z" fill="white"/>
<path d="M48.8513 26.5698C47.79 25.4031 46.3664 24.6762 44.996 24.6762H37.6431V35.5745C38.5216 35.8569 39.4687 36.2782 40.3747 36.9001H44.996C46.3664 36.9001 47.79 36.1733 48.8513 35.0066C49.8517 33.9078 50.5247 32.4217 50.5247 30.7889C50.5262 29.1562 49.8532 27.6701 48.8513 26.5698ZM44.6381 27.667C46.0435 27.667 47.5388 29.0945 47.5388 30.8538C47.5388 32.613 46.0435 34.0405 44.6381 34.0405H40.8513V27.6685H44.6381V27.667Z" fill="white"/>
</svg>
